<svg xmlns="http://www.w3.org/2000/svg" viewBox="0 0 93.31 49"><defs><style>.cls-1{fill:none;stroke:#fff;stroke-linecap:round;stroke-miterlimit:10;stroke-width:2px;}.cls-2{fill:#fff;}</style></defs><g id="Warstwa_2" data-name="Warstwa 2"><g id="Warstwa_1-2" data-name="Warstwa 1"><g id="Warstwa_2-2" data-name="Warstwa 2"><g id="Warstwa_1-2-2" data-name="Warstwa 1-2"><path class="cls-1" d="M92.31,41.21A77.29,77.29,0,0,1,84.4,41a72.6,72.6,0,0,1-7.66-.83,73.37,73.37,0,0,1-8.17-1.91,90.61,90.61,0,0,1-14.17-5A62.93,62.93,0,0,1,37,21.15l-.86-6.72a13,13,0,0,1,1.76-6.66A14.41,14.41,0,0,1,48,1.26H48a11.17,11.17,0,0,1,8,1.28,10,10,0,0,1,4.59,8.68c-.09.9-.41,5.28-4,7.28-3.24,1.81-7.88,1.21-10-1.79A6.29,6.29,0,0,1,46,10.32c.12-.23,1.6-3.07,4.6-3.07A4.75,4.75,0,0,1,55,10.19c.47,1.27.44,3.34-1,4.34a3.47,3.47,0,0,1-3.57.13,3.63,3.63,0,0,1-1.66-1.92"/><path class="cls-1" d="M37.94,22a44.33,44.33,0,0,0-14.06-7.8C19.83,13,16.19,11.75,11.76,13c-1,.28-7.4,2.17-9.83,8.17A12.41,12.41,0,0,0,1.42,29a10.16,10.16,0,0,0,11.36,8,9.45,9.45,0,0,0,6.66-3.19c1.88-2.32,2.76-6.32.76-9.32a7.56,7.56,0,0,0-5.36-3.07c-.49,0-4-.29-5.74,2.3C7.61,26,8,29.52,10.1,30.91A4.09,4.09,0,0,0,15,30.66a4.16,4.16,0,0,0,.89-2.94,2.8,2.8,0,0,0-.64-2.17A2.63,2.63,0,0,0,12.91,25"/><path class="cls-2" d="M51.18,41.21c-1.79,1.56-3.47,4.68-2.55,6.32S52.55,49,52.9,49c3.37-.2,4.31-2.64,8.17-4.53,4.65-2.28,8.16-1.15,8.24-1.85C69.43,41.28,57,36.19,51.18,41.21Z"/><path class="cls-2" d="M48.19,38.56c-5,.81-4.89,2.41-9.25,2.7-2.71.13-6.75.19-9,.13-1.7,0-2.78,1.39-4.55,1.58-2.12.21-.14-7.06,4.43-9.6a18,18,0,0,1,8.49-2.2c3.21,0,6,1,11.41,3.24,3,1.24,7.21,2.93,7,3.72S53.22,37.75,48.19,38.56Z"/><rect class="cls-2" x="26.31" y="5.65" width="6.81" height="6.81" rx="3.4"/></g></g></g></g></svg>