<svg xmlns="http://www.w3.org/2000/svg" viewBox="0 0 93.31 49"><defs><style>.cls-1{fill:none;stroke:#fff;stroke-linecap:round;stroke-miterlimit:10;stroke-width:2px;}.cls-2{fill:#fff;}</style></defs><g id="Warstwa_2" data-name="Warstwa 2"><g id="Warstwa_1-2" data-name="Warstwa 1"><g id="Warstwa_2-2" data-name="Warstwa 2"><g id="Warstwa_1-2-2" data-name="Warstwa 1-2"><path class="cls-1" d="M44.53,12.74a3.72,3.72,0,0,1-1.66,1.92,3.47,3.47,0,0,1-3.57-.13c-1.44-1-1.47-3.07-1-4.34a4.73,4.73,0,0,1,4.46-2.94c3,0,4.48,2.84,4.6,3.07a6.32,6.32,0,0,1-.64,6.38c-2.12,3-6.76,3.6-10,1.79-3.59-2-3.91-6.38-4-7.28a10,10,0,0,1,4.59-8.68,11.16,11.16,0,0,1,8-1.28h.06a14.45,14.45,0,0,1,10,6.51,13.09,13.09,0,0,1,1.76,6.66l-.86,6.72A62.93,62.93,0,0,1,38.91,33.3a91.34,91.34,0,0,1-14.17,5,73.9,73.9,0,0,1-8.17,1.91A72.89,72.89,0,0,1,8.91,41,77.29,77.29,0,0,1,1,41.21"/><path class="cls-1" d="M80.4,25a2.63,2.63,0,0,0-2.29.51,2.76,2.76,0,0,0-.64,2.17,4.06,4.06,0,0,0,.89,2.94,4.09,4.09,0,0,0,4.85.25c2.15-1.39,2.49-4.93,1-7.15-1.72-2.59-5.25-2.33-5.74-2.3a7.56,7.56,0,0,0-5.36,3.07c-2,3-1.12,7,.76,9.32A9.43,9.43,0,0,0,80.53,37a10.17,10.17,0,0,0,11.36-8,12.54,12.54,0,0,0-.51-7.91c-2.43-6-8.78-7.89-9.83-8.17-4.43-1.21-8.07,0-12.12,1.28A44.23,44.23,0,0,0,55.37,22"/><path class="cls-2" d="M24,42.62c.08.7,3.59-.43,8.24,1.85C36.1,46.36,37,48.8,40.41,49c.35,0,3.35.17,4.27-1.47s-.76-4.76-2.55-6.32C36.35,36.19,23.88,41.28,24,42.62Z"/><path class="cls-2" d="M36.59,38.13c-.21-.79,4-2.48,7-3.72C49,32.22,51.79,31.13,55,31.17a18,18,0,0,1,8.49,2.2c4.57,2.54,6.55,9.81,4.43,9.6-1.77-.19-2.85-1.62-4.55-1.58-2.25.06-6.29,0-9-.13-4.36-.29-4.22-1.89-9.25-2.7S36.77,38.83,36.59,38.13Z"/><rect class="cls-2" x="60.19" y="5.65" width="6.81" height="6.81" rx="3.4"/></g></g></g></g></svg>